<svg width="97" height="76" viewBox="0 0 97 76" fill="none" xmlns="http://www.w3.org/2000/svg">
<path d="M18.8001 37.2824C8.15751 37.2824 0.958344 29.8659 0.958344 18.877C0.958344 8.98829 9.21701 0.75 20.4029 0.75C32.6551 0.75 41.7083 10.6387 41.7083 25.7433C41.7083 60.0752 16.6743 73.808 0.958344 75.4583V60.3537C11.6145 58.4316 23.595 47.7212 24.1315 35.9037C23.595 36.1753 21.4692 37.2824 18.8001 37.2824Z" fill="#F0F2F3"/>
<path d="M73.1334 37.2824C62.4841 37.2824 55.2917 29.8659 55.2917 18.877C55.2917 8.98829 63.5504 0.75 74.7362 0.75C86.9884 0.75 96.0417 10.6387 96.0417 25.7433C96.0417 60.0752 71.0076 73.808 55.2917 75.4583V60.3537C65.9478 58.4316 77.9283 47.7212 78.4649 35.9037C77.9283 36.1753 75.8025 37.2824 73.1334 37.2824Z" fill="#F0F2F3"/>
</svg>
