<svg width="166" height="40" viewBox="0 0 166 40" fill="none" xmlns="http://www.w3.org/2000/svg">
<g clip-path="url(#clip0_1_1255)">
<path d="M39.9938 19.7464C39.9286 18.4433 39.3566 17.2173 38.3999 16.3301C37.4432 15.4429 36.1776 14.9649 34.8732 14.9979C33.5689 15.031 32.3292 15.5727 31.4187 16.5072C30.5082 17.4418 29.9991 18.6952 30 20V28.3333C30 27.8913 29.8244 27.4674 29.5119 27.1548C29.1993 26.8422 28.7754 26.6667 28.3334 26.6667H11.6667C11.2247 26.6667 10.8007 26.8422 10.4882 27.1548C10.1756 27.4674 10 27.8913 10 28.3333V20C9.99996 19.0833 9.74791 18.1843 9.27143 17.4013C8.79495 16.6182 8.11237 15.9812 7.2983 15.5598C6.48422 15.1385 5.56999 14.949 4.65552 15.0122C3.74105 15.0754 2.86154 15.3887 2.11312 15.9179C1.3647 16.4472 0.776167 17.172 0.411857 18.0131C0.0475467 18.8543 -0.0785237 19.7794 0.0474254 20.6873C0.173374 21.5953 0.546496 22.4511 1.12601 23.1614C1.70552 23.8716 2.46912 24.4088 3.33334 24.7144V33.3333C3.33334 33.7753 3.50893 34.1993 3.8215 34.5118C4.13406 34.8244 4.55798 35 5.00001 35H6.66668V38.3333H10V35H30V38.3333H33.3334V35H35C35.4421 35 35.866 34.8244 36.1786 34.5118C36.4911 34.1993 36.6667 33.7753 36.6667 33.3333V24.7144C37.6824 24.3551 38.5549 23.6775 39.1544 22.7823C39.7539 21.8872 40.0483 20.8224 39.9938 19.7464Z" fill="#029FAE"/>
<path d="M11.6667 19.9998V24.9998H28.3333V19.9998C28.3352 18.5223 28.8271 17.087 29.7318 15.9189C30.6366 14.7507 31.9032 13.9156 33.3333 13.5442V9.99984C33.3309 7.79046 32.4521 5.67229 30.8898 4.11002C29.3276 2.54776 27.2094 1.66899 25 1.6665H15C12.7906 1.66899 10.6725 2.54776 9.1102 4.11002C7.54794 5.67229 6.66917 7.79046 6.66669 9.99984V13.5442C8.09683 13.9156 9.36344 14.7507 10.2682 15.9189C11.173 17.087 11.6648 18.5223 11.6667 19.9998ZM23.3333 8.33317C23.663 8.33317 23.9852 8.43092 24.2593 8.61405C24.5334 8.79719 24.747 9.05749 24.8731 9.36203C24.9993 9.66657 25.0323 10.0017 24.968 10.325C24.9037 10.6483 24.7449 10.9453 24.5119 11.1783C24.2788 11.4114 23.9818 11.5702 23.6585 11.6345C23.3352 11.6988 23.0001 11.6658 22.6955 11.5396C22.391 11.4135 22.1307 11.1999 21.9476 10.9258C21.7644 10.6517 21.6667 10.3295 21.6667 9.99984C21.6667 9.55781 21.8423 9.13389 22.1548 8.82132C22.4674 8.50876 22.8913 8.33317 23.3333 8.33317ZM23.3333 13.3332C23.663 13.3332 23.9852 13.4309 24.2593 13.6141C24.5334 13.7972 24.747 14.0575 24.8731 14.362C24.9993 14.6666 25.0323 15.0017 24.968 15.325C24.9037 15.6483 24.7449 15.9453 24.5119 16.1783C24.2788 16.4114 23.9818 16.5702 23.6585 16.6345C23.3352 16.6988 23.0001 16.6658 22.6955 16.5396C22.391 16.4135 22.1307 16.1999 21.9476 15.9258C21.7644 15.6517 21.6667 15.3295 21.6667 14.9998C21.6667 14.5578 21.8423 14.1339 22.1548 13.8213C22.4674 13.5088 22.8913 13.3332 23.3333 13.3332ZM16.6667 8.33317C16.9963 8.33317 17.3186 8.43092 17.5926 8.61405C17.8667 8.79719 18.0803 9.05749 18.2065 9.36203C18.3326 9.66657 18.3656 10.0017 18.3013 10.325C18.237 10.6483 18.0783 10.9453 17.8452 11.1783C17.6121 11.4114 17.3151 11.5702 16.9918 11.6345C16.6685 11.6988 16.3334 11.6658 16.0289 11.5396C15.7243 11.4135 15.464 11.1999 15.2809 10.9258C15.0978 10.6517 15 10.3295 15 9.99984C15 9.55781 15.1756 9.13389 15.4882 8.82132C15.8007 8.50876 16.2247 8.33317 16.6667 8.33317ZM16.6667 13.3332C16.9963 13.3332 17.3186 13.4309 17.5926 13.6141C17.8667 13.7972 18.0803 14.0575 18.2065 14.362C18.3326 14.6666 18.3656 15.0017 18.3013 15.325C18.237 15.6483 18.0783 15.9453 17.8452 16.1783C17.6121 16.4114 17.3151 16.5702 16.9918 16.6345C16.6685 16.6988 16.3334 16.6658 16.0289 16.5396C15.7243 16.4135 15.464 16.1999 15.2809 15.9258C15.0978 15.6517 15 15.3295 15 14.9998C15 14.5578 15.1756 14.1339 15.4882 13.8213C15.8007 13.5088 16.2247 13.3332 16.6667 13.3332Z" fill="#029FAE"/>
</g>
<path d="M65.7827 16.7401C65.1364 12.696 61.9695 10.3324 57.9716 10.3324C53.0781 10.3324 49.468 13.9979 49.468 20.0455C49.468 26.093 53.0597 29.7585 57.9716 29.7585C62.1264 29.7585 65.1641 27.1548 65.7827 23.4155L62.902 23.4062C62.4126 25.8253 60.3814 27.1548 57.9901 27.1548C54.7493 27.1548 52.3026 24.6712 52.3026 20.0455C52.3026 15.4567 54.7401 12.9361 57.9993 12.9361C60.4091 12.9361 62.4311 14.2933 62.902 16.7401H65.7827ZM74.9487 29.7862C78.9466 29.7862 81.5595 26.8594 81.5595 22.4737C81.5595 18.0604 78.9466 15.1335 74.9487 15.1335C70.9508 15.1335 68.3379 18.0604 68.3379 22.4737C68.3379 26.8594 70.9508 29.7862 74.9487 29.7862ZM74.9579 27.4688C72.345 27.4688 71.1262 25.1882 71.1262 22.4645C71.1262 19.75 72.345 17.4418 74.9579 17.4418C77.5524 17.4418 78.7711 19.75 78.7711 22.4645C78.7711 25.1882 77.5524 27.4688 74.9579 27.4688ZM84.641 29.5H87.4016V20.7564C87.4016 18.8452 88.7404 17.5156 90.31 17.5156C91.8427 17.5156 92.9045 18.5312 92.9045 20.0732V29.5H95.6559V20.4609C95.6559 18.7528 96.6992 17.5156 98.4996 17.5156C99.9585 17.5156 101.159 18.3281 101.159 20.2486V29.5H103.919V19.9901C103.919 16.7493 102.11 15.1335 99.543 15.1335C97.5025 15.1335 95.9698 16.1122 95.2866 17.6264H95.1388C94.5202 16.0753 93.2184 15.1335 91.3256 15.1335C89.4513 15.1335 88.0572 16.0661 87.4663 17.6264H87.2908V15.3182H84.641V29.5ZM114.369 15.3182H111.313V14.044C111.313 12.7884 111.83 12.1051 113.178 12.1051C113.75 12.1051 114.156 12.2344 114.415 12.3175L115.061 10.0831C114.673 9.93537 113.87 9.70454 112.753 9.70454C110.509 9.70454 108.543 11.0156 108.543 13.6747V15.3182H106.355V17.5341H108.543V29.5H111.313V17.5341H114.369V15.3182ZM122.632 29.7862C126.63 29.7862 129.243 26.8594 129.243 22.4737C129.243 18.0604 126.63 15.1335 122.632 15.1335C118.634 15.1335 116.021 18.0604 116.021 22.4737C116.021 26.8594 118.634 29.7862 122.632 29.7862ZM122.642 27.4688C120.029 27.4688 118.81 25.1882 118.81 22.4645C118.81 19.75 120.029 17.4418 122.642 17.4418C125.236 17.4418 126.455 19.75 126.455 22.4645C126.455 25.1882 125.236 27.4688 122.642 27.4688ZM132.325 29.5H135.085V20.8395C135.085 18.9837 136.516 17.6449 138.474 17.6449C139.046 17.6449 139.692 17.7464 139.914 17.8111V15.1705C139.637 15.1335 139.092 15.1058 138.741 15.1058C137.08 15.1058 135.658 16.0476 135.141 17.571H134.993V15.3182H132.325V29.5ZM149.761 15.3182H146.853V11.9205H144.092V15.3182H142.015V17.5341H144.092V25.9084C144.083 28.4844 146.049 29.7308 148.228 29.6847C149.105 29.6754 149.696 29.5092 150.02 29.3892L149.521 27.1087C149.336 27.1456 148.995 27.2287 148.551 27.2287C147.656 27.2287 146.853 26.9332 146.853 25.3359V17.5341H149.761V15.3182ZM154.56 34.8182C156.84 34.8182 158.281 33.6271 159.102 31.3928L164.965 15.3459L161.983 15.3182L158.392 26.3239H158.244L154.652 15.3182H151.698L156.887 29.6847L156.545 30.6264C155.843 32.5099 154.855 32.6669 153.341 32.2514L152.676 34.5135C153.009 34.6612 153.729 34.8182 154.56 34.8182Z" fill="#272343"/>
<defs>
<clipPath id="clip0_1_1255">
<rect width="40" height="40" fill="white"/>
</clipPath>
</defs>
</svg>
